<svg id="Capa_1" enable-background="new 0 0 512 512" height="512" viewBox="0 0 512 512" width="512" xmlns="http://www.w3.org/2000/svg"><g><g><path d="m351.664 184.724h-218.962l-14.46-149.822c-1.417-14.688 10.129-27.402 24.886-27.402h119.88c48.964 0 88.656 39.693 88.656 88.656z" fill="#89828d"/><path d="m273.008 7.5h-23.001c48.963 0 88.656 39.693 88.656 88.656v88.568h23.001v-88.568c0-48.963-39.693-88.656-88.656-88.656z" fill="#746f78"/><path d="m344.837 153.552h-16.66v62.345h16.66c17.216 0 31.172-13.956 31.172-31.172s-13.956-31.173-31.172-31.173z" fill="#ffbd86"/><path d="m208.056 332.408v-98.302h74.107v98.302l94.97-10c36.799 12.895 49.563 27.07 49.521 59.985v112.107c0 5.523-4.477 10-10 10h-353.513c-5.523 0-10-4.477-10-10v-112.598c.042-32.914 26.915-59.563 59.83-59.521l55.257.017z" fill="#80b4fb"/><path d="m161.618 153.552h-16.66c-17.216 0-31.172 13.956-31.172 31.173s13.956 31.172 31.172 31.172h16.66z" fill="#ffbd86"/><path d="m245.11 408.6c42.461 0 76.883-34.421 76.883-76.882v-9.31h-29.829v-88.302h-94.108v88.302l-29.829-.009v9.319c0 42.461 34.422 76.882 76.883 76.882z" fill="#ffbd86"/><g><path d="m377.134 322.408h-30.001c32.915.042 59.563 27.07 59.521 59.985v112.107c0 5.523-4.477 10-10 10h30.001c5.523 0 10-4.477 10-10v-112.107c.042-32.915-26.606-59.943-59.521-59.985z" fill="#61a2f9"/></g><path d="m244.898 312.016c-51.517 0-93.28-42.305-93.28-94.491v-65.417c0-52.186 41.762-94.491 93.28-94.491 51.517 0 93.28 42.305 93.28 94.491v65.417c-.001 52.186-41.763 94.491-93.28 94.491z" fill="#fed2a4"/><path d="m244.898 57.618c-5.107 0-10.117.422-15.001 1.222 44.384 7.269 78.278 46.256 78.278 93.268v65.417c0 47.013-33.895 85.999-78.278 93.269 4.884.8 9.894 1.222 15.001 1.222 51.517 0 93.279-42.305 93.279-94.491v-65.417c0-52.186-41.762-94.49-93.279-94.49z" fill="#ffbd86"/><path d="m134.678 504.5v-67.158c0-4.142-3.358-7.5-7.5-7.5s-7.5 3.358-7.5 7.5v67.158z" fill="#61a2f9"/><path d="m370.117 437.342c0-4.142-3.358-7.5-7.5-7.5s-7.5 3.358-7.5 7.5v67.158h15z" fill="#61a2f9"/><path d="m327.474 74.419s-111.273 43.748-181.65 43.748c-.001 0 38.041-130.293 181.65-43.748z" fill="#89828d"/><path d="m448.859 346.626c0-53.153-33.089-96.242-86.242-96.242s-96.242 43.089-96.242 96.242 43.089 96.242 96.242 96.242 86.242-43.089 86.242-96.242z" fill="#fe646f"/><path d="m362.617 250.384c-4.237 0-8.408.276-12.5.807 47.247 6.128 83.742 46.519 83.742 95.435 0 48.917-36.495 89.307-83.742 95.435 4.092.531 8.264.807 12.5.807 53.153 0 96.242-43.089 96.242-96.242s-43.088-96.242-96.242-96.242z" fill="#fd4755"/></g><g><path d="m466.359 346.626c0-23.514-7.672-45.688-22.186-64.124-2.563-3.256-7.279-3.816-10.532-1.254-3.255 2.563-3.816 7.278-1.254 10.532 12.412 15.766 18.972 34.731 18.972 54.846 0 48.933-39.81 88.743-88.742 88.743s-88.742-39.81-88.742-88.743 39.81-88.742 88.742-88.742c17.104 0 33.705 4.873 48.01 14.094 3.48 2.244 8.124 1.241 10.367-2.24 2.244-3.481 1.241-8.123-2.24-10.367-16.732-10.786-36.145-16.487-56.137-16.487-7.06 0-13.956.712-20.623 2.062 1.934-7.017 3.108-14.225 3.515-21.567 21.014-.361 38-17.557 38-38.655 0-12.113-5.601-22.937-14.345-30.033v-58.535c0-53.02-43.136-96.156-96.156-96.156h-129.88c-9.143 0-17.913 3.882-24.06 10.651s-9.168 15.871-8.29 24.972l3.279 33.975c.398 4.123 4.065 7.146 8.186 6.745 4.123-.398 7.143-4.063 6.745-8.186l-3.279-33.975c-.48-4.973 1.105-9.748 4.464-13.446 3.357-3.699 7.958-5.736 12.954-5.736h129.88c44.749 0 81.156 36.407 81.156 81.156v51.04c-2.784-.692-5.687-1.077-8.671-1.128-1.569-26.634-13.452-51.785-33.158-69.752-2.041-1.86-4.986-2.44-7.57-1.522-33.796 11.945-97.851 32.433-147.261 35.493-2.986.186-5.65 2.217-6.627 5.043-3.766 9.856-5.957 20.171-6.565 30.738-2.646.044-5.227.353-7.719.905l-4.488-46.497c-.398-4.122-4.048-7.136-8.186-6.745-4.122.398-7.143 4.063-6.745 8.186l4.98 51.599c-9.612 7.042-15.869 18.406-15.869 31.208 0 21.099 16.987 38.294 38.002 38.655 1.886 33.566 19.88 62.841 46.268 80.005v11.521l-77.576-.024c-.031 0-.059 0-.089 0-17.893 0-34.742 6.953-47.449 19.582-12.746 12.668-19.778 29.512-19.801 47.439v39.096c0 4.142 3.358 7.5 7.5 7.5s7.5-3.358 7.5-7.5v-39.086c.018-13.901 5.478-26.974 15.374-36.809 9.878-9.817 22.972-15.221 36.883-15.221h.069l47.76.015v1.821c0 46.529 37.854 84.383 84.382 84.383 11.892 0 23.683-2.535 34.469-7.355 17.532 23.377 44.69 39.136 75.539 41.351v46.903h-220.437v-59.658c0-4.142-3.358-7.5-7.5-7.5s-7.5 3.358-7.5 7.5v59.658h-56.537c-1.378 0-2.5-1.122-2.5-2.5v-40.814c0-4.142-3.358-7.5-7.5-7.5s-7.5 3.358-7.5 7.5v40.814c0 9.65 7.851 17.5 17.5 17.5h363.514c9.65 0 17.501-7.851 17.501-17.5v-83.801c13.9-17.654 22.203-39.912 22.203-64.073zm-120.682-138.251v-47.301c12.665.445 22.832 10.88 22.832 23.651 0 12.77-10.167 23.205-22.832 23.65zm-224.391-23.651c0-12.771 10.167-23.206 22.832-23.651v47.301c-12.665-.444-22.832-10.879-22.832-23.65zm37.832 32.801v-65.416c0-9.333 1.449-18.463 4.29-27.21 48.328-3.976 107.719-22.502 142.006-34.438 16.105 16.275 25.263 38.496 25.263 61.648v65.416c0 11.31-2.123 22.283-6.27 32.651-23.948 9.521-43.536 27.716-54.874 50.684-7.96 2.416-16.233 3.656-24.635 3.656-47.299 0-85.78-39.024-85.78-86.991zm85.992 183.575c-38.257 0-69.382-31.125-69.382-69.383v-1.816l22.326.007h.002c1.989 0 3.896-.79 5.302-2.196 1.407-1.407 2.198-3.314 2.198-5.304v-10.987c12.094 5.21 25.391 8.095 39.342 8.095 6.084 0 12.111-.566 18.036-1.65-2.64 9.136-4.059 18.785-4.059 28.76 0 17.84 4.527 34.643 12.492 49.32-8.289 3.381-17.235 5.154-26.257 5.154zm181.544 95.9h-56.537v-46.905c22.377-1.606 42.81-10.342 59.038-23.942v68.347c0 1.378-1.122 2.5-2.501 2.5z"/><path d="m344.359 379.398c4.142 0 7.5-3.358 7.5-7.5v-18.073h17.472c4.142 0 7.5-3.358 7.5-7.5s-3.358-7.5-7.5-7.5h-17.472v-17.472c0-4.142-3.358-7.5-7.5-7.5s-7.5 3.358-7.5 7.5v17.472h-18.073c-4.142 0-7.5 3.358-7.5 7.5s3.358 7.5 7.5 7.5h18.073v18.073c0 4.142 3.358 7.5 7.5 7.5z"/><path d="m404.543 392.357c4.142 0 7.5-3.358 7.5-7.5v-76.462c0-4.142-3.358-7.5-7.5-7.5h-16.343c-4.142 0-7.5 3.358-7.5 7.5s3.358 7.5 7.5 7.5h8.843v68.962c0 4.143 3.357 7.5 7.5 7.5z"/></g></g></svg>