<?xml version="1.0" encoding="iso-8859-1"?>
<!-- Generator: Adobe Illustrator 19.0.0, SVG Export Plug-In . SVG Version: 6.00 Build 0)  -->
<svg version="1.1" id="Capa_1" xmlns="http://www.w3.org/2000/svg" xmlns:xlink="http://www.w3.org/1999/xlink" x="0px" y="0px"
	 viewBox="0 0 512 512" style="enable-background:new 0 0 512 512;" xml:space="preserve">
<g>
	<g>
		<path d="M114.4,340v112h138.8V340H114.4z M223.2,422h-78.8v-52h78.8V422z"/>
	</g>
</g>
<g>
	<g>
		<path d="M502.844,180.692L455.872,71.9V0h-90v60H61.266L9.156,180.692C4.022,192.584,0,212.047,0,225v15h30v272h452V240h30v-15
			C512,212.047,507.978,192.584,502.844,180.692z M395.872,30h30v30h-30V30z M367.6,482h-54.4V370h54.4V482z M452,482h-54.4V340
			H283.2v142H60V310h392V482z M60,280v-40h54.4v40H60z M144.4,280v-40h54.4v40H144.4z M228.8,240h54.4v40h-54.4V240z M313.2,280v-40
			h54.4v40H313.2z M452,280h-54.4v-40H452V280z M31.714,210c1.248-6.444,3.053-12.94,4.985-17.416L80.99,90h350.02l44.291,102.584
			c1.933,4.476,3.737,10.972,4.985,17.416H31.714z"/>
	</g>
</g>
<g>
</g>
<g>
</g>
<g>
</g>
<g>
</g>
<g>
</g>
<g>
</g>
<g>
</g>
<g>
</g>
<g>
</g>
<g>
</g>
<g>
</g>
<g>
</g>
<g>
</g>
<g>
</g>
<g>
</g>
</svg>
