<?xml version="1.0" encoding="iso-8859-1"?>
<!-- Generator: Adobe Illustrator 19.0.0, SVG Export Plug-In . SVG Version: 6.00 Build 0)  -->
<svg version="1.1" id="Capa_1" xmlns="http://www.w3.org/2000/svg" xmlns:xlink="http://www.w3.org/1999/xlink" x="0px" y="0px"
	 viewBox="0 0 512 512" style="enable-background:new 0 0 512 512;" xml:space="preserve">
<path style="fill:#5C6376;" d="M416.885,38.04v435.92c0,16.87-13.67,30.54-30.53,30.54h-224.38c-16.86,0-30.53-13.67-30.53-30.54
	V38.04c0-16.87,13.67-30.54,30.53-30.54h224.38C403.216,7.5,416.885,21.17,416.885,38.04z"/>
<path style="fill:#4C5568;" d="M416.89,38.04v435.92c0,16.87-13.67,30.54-30.53,30.54h-28c16.86,0,30.53-13.67,30.53-30.54V38.04
	c0-16.87-13.67-30.54-30.53-30.54h28C403.22,7.5,416.89,21.17,416.89,38.04z"/>
<path style="fill:#707784;" d="M189.977,504.5h-28c-16.86,0-30.53-13.67-30.53-30.54V38.04c0-16.87,13.67-30.54,30.53-30.54h28
	c-16.86,0-30.53,13.67-30.53,30.54v435.92C159.447,490.83,173.117,504.5,189.977,504.5z"/>
<rect x="131.45" y="61.82" style="fill:#D1D9E8;" width="285.44" height="396.79"/>
<rect x="131.44" y="61.822" style="fill:#E2E9F2;" width="28" height="396.79"/>
<g>
	<path style="fill:#BCC7D8;" d="M237.836,167.1v126.612c0,4.445-3.603,8.048-8.048,8.048h-24.002l-21.76,21.76
		c-2.87,2.87-7.52,2.87-10.38,0l-21.77-21.76h-20.43V167.1H237.836z"/>
	<path style="fill:#BCC7D8;" d="M274.167,260.218V386.83c0,4.445,3.603,8.048,8.048,8.048h25.14l21.76,21.76
		c2.87,2.87,7.52,2.87,10.38,0l21.77-21.76h55.622v-134.66H274.167z"/>
	<rect x="388.89" y="61.82" style="fill:#BCC7D8;" width="28" height="396.79"/>
</g>
<rect x="131.44" y="61.822" style="fill:#FF78BF;" width="285.45" height="36.777"/>
<rect x="388.89" y="61.822" style="fill:#F261B4;" width="28" height="36.777"/>
<rect x="131.45" y="61.822" style="fill:#FF94D1;" width="28" height="36.777"/>
<g>
	<path style="fill:#50596D;" d="M416.89,167.093h9.593c4.578,0,8.289,3.361,8.289,7.507v127.371c0,4.146-3.711,7.507-8.289,7.507
		h-9.593V167.093z"/>
	<path style="fill:#50596D;" d="M416.89,88.14h9.593c4.578,0,8.289,3.361,8.289,7.507v16.027c0,4.146-3.711,7.507-8.289,7.507
		h-9.593V88.14z"/>
	<path style="fill:#50596D;" d="M416.89,427.571h9.593c4.578,0,8.289,3.361,8.289,7.507v16.027c0,4.146-3.711,7.507-8.289,7.507
		h-9.593V427.571z"/>
	<path style="fill:#50596D;" d="M131.443,119.182h-9.593c-4.578,0-8.289-3.361-8.289-7.507V95.647c0-4.146,3.711-7.507,8.289-7.507
		h9.593V119.182z"/>
	<path style="fill:#50596D;" d="M131.443,173.167h-9.593c-4.578,0-8.289-3.361-8.289-7.507v-16.027c0-4.146,3.711-7.507,8.289-7.507
		h9.593V173.167z"/>
</g>
<polygon style="fill:#64DDE0;" points="237.833,145.667 55.167,145.667 55.167,280.333 151.881,280.333 178.833,307.285 
	205.785,280.333 237.833,280.333 "/>
<rect x="219" y="145.67" style="fill:#42C6C6;" width="18.83" height="134.67"/>
<polygon style="fill:#F7B41F;" points="456.836,232.33 456.836,367 360.116,367 333.167,393.95 306.216,367 274.167,367 
	274.167,232.33 "/>
<rect x="438.01" y="232.33" style="fill:#EAA213;" width="18.83" height="134.67"/>
<path d="M262.357,28.005c-4.143,0-7.5,3.358-7.5,7.5s3.357,7.5,7.5,7.5h24.969c4.143,0,7.5-3.358,7.5-7.5s-3.357-7.5-7.5-7.5
	C287.326,28.005,262.357,28.005,262.357,28.005z"/>
<path d="M234.015,28.005c-4.142,0-7.5,3.358-7.5,7.5s3.358,7.5,7.5,7.5h1.012c4.142,0,7.5-3.358,7.5-7.5s-3.358-7.5-7.5-7.5
	C235.027,28.005,234.015,28.005,234.015,28.005z"/>
<path d="M287.326,472.707h-24.969c-4.143,0-7.5,3.358-7.5,7.5s3.357,7.5,7.5,7.5h24.969c4.143,0,7.5-3.358,7.5-7.5
	S291.467,472.707,287.326,472.707z"/>
<path d="M89.833,189.167h33.333c4.142,0,7.5-3.358,7.5-7.5s-3.358-7.5-7.5-7.5H89.833c-4.142,0-7.5,3.358-7.5,7.5
	S85.691,189.167,89.833,189.167z"/>
<path d="M89.833,211.5c-4.142,0-7.5,3.358-7.5,7.5s3.358,7.5,7.5,7.5H190.5c4.142,0,7.5-3.358,7.5-7.5s-3.358-7.5-7.5-7.5H89.833z"
	/>
<path d="M190.5,232.167H89.833c-4.142,0-7.5,3.358-7.5,7.5s3.358,7.5,7.5,7.5H190.5c4.142,0,7.5-3.358,7.5-7.5
	S194.642,232.167,190.5,232.167z"/>
<path d="M456.833,224.833H442.27V174.6c0-8.277-7.083-15.01-15.789-15.01h-2.091v-32.908h2.092c8.706,0,15.789-6.732,15.789-15.007
	V95.647c0-8.275-7.083-15.007-15.789-15.007h-2.092v-42.6C424.39,17.064,407.326,0,386.35,0H355c-4.143,0-7.5,3.358-7.5,7.5
	s3.357,7.5,7.5,7.5h31.35c12.704,0,23.04,10.336,23.04,23.04v16.282H138.94V38.04c0-12.704,10.336-23.04,23.04-23.04h163.18
	c4.143,0,7.5-3.358,7.5-7.5s-3.357-7.5-7.5-7.5H161.98c-20.976,0-38.04,17.064-38.04,38.04v42.6h-2.091
	c-8.706,0-15.789,6.732-15.789,15.007v16.027c0,8.275,7.083,15.007,15.789,15.007h2.091v7.948h-2.09
	c-3.793,0-7.376,1.28-10.186,3.537H55.167c-4.142,0-7.5,3.358-7.5,7.5v134.667c0,4.142,3.358,7.5,7.5,7.5h68.775v56.277
	c0,4.142,3.358,7.5,7.5,7.5s7.5-3.358,7.5-7.5v-56.277h9.833l24.755,24.755c1.464,1.464,3.384,2.197,5.303,2.197
	s3.839-0.732,5.303-2.197l24.755-24.755h28.941c4.142,0,7.5-3.358,7.5-7.5V145.667c0-4.142-3.358-7.5-7.5-7.5h-98.892V119.22
	c0-0.013,0.002-0.026,0.002-0.039s-0.002-0.026-0.002-0.039V106.1h270.45v13.043c0,0.013-0.002,0.026-0.002,0.039
	s0.002,0.026,0.002,0.039v105.613h-57.196c-4.143,0-7.5,3.358-7.5,7.5s3.357,7.5,7.5,7.5h97.139V359.5h-89.215
	c-1.989,0-3.896,0.79-5.304,2.197l-21.648,21.649l-21.648-21.649c-1.407-1.407-3.314-2.197-5.304-2.197h-24.548V239.833H322
	c4.143,0,7.5-3.358,7.5-7.5s-3.357-7.5-7.5-7.5h-47.833c-4.143,0-7.5,3.358-7.5,7.5V367c0,4.142,3.357,7.5,7.5,7.5h28.941
	l24.755,24.755c1.465,1.464,3.385,2.197,5.304,2.197s3.839-0.732,5.304-2.197l24.755-24.755h46.166v53.033
	c0,0.013-0.002,0.026-0.002,0.039s0.002,0.026,0.002,0.039v23.503h-270.45V374c0-4.142-3.358-7.5-7.5-7.5s-7.5,3.358-7.5,7.5v99.96
	c0,20.976,17.064,38.04,38.04,38.04h224.37c20.976,0,38.04-17.064,38.04-38.04v-7.847h2.092c8.706,0,15.789-6.732,15.789-15.007
	v-16.027c0-8.275-7.083-15.007-15.789-15.007h-2.092V374.5h32.442c4.143,0,7.5-3.358,7.5-7.5V232.333
	C464.333,228.191,460.976,224.833,456.833,224.833z M426.483,95.64c0.409,0,0.669,0.135,0.789,0.226v15.589
	c-0.12,0.091-0.38,0.226-0.789,0.226h-2.092V95.64H426.483z M121.85,111.682c-0.409,0-0.668-0.135-0.789-0.226v-15.59
	c0.121-0.091,0.38-0.226,0.789-0.226h2.091v16.042H121.85z M230.333,272.833h-24.548c-1.989,0-3.897,0.79-5.303,2.197
	l-21.649,21.649l-21.649-21.649c-1.406-1.407-3.314-2.197-5.303-2.197H62.667V153.167h167.667v119.666H230.333z M138.941,91.1
	v-2.921c0-0.013,0.002-0.026,0.002-0.039s-0.002-0.026-0.002-0.039V69.322h270.45v18.779c0,0.013-0.002,0.026-0.002,0.039
	s0.002,0.026,0.002,0.039V91.1H138.941z M424.391,174.59h2.091c0.41,0,0.669,0.135,0.789,0.226v50.018h-2.88V174.59z M386.351,497
	h-224.37c-12.704,0-23.04-10.336-23.04-23.04v-7.847h270.45v7.847C409.391,486.664,399.055,497,386.351,497z M426.483,435.071
	c0.409,0,0.669,0.135,0.789,0.226v15.589c-0.12,0.091-0.38,0.226-0.789,0.226h-2.092V435.07L426.483,435.071L426.483,435.071z"/>
<path d="M344.833,260.833H311.5c-4.143,0-7.5,3.358-7.5,7.5s3.357,7.5,7.5,7.5h33.334c4.143,0,7.5-3.358,7.5-7.5
	S348.976,260.833,344.833,260.833z"/>
<path d="M311.5,313.167h21c4.143,0,7.5-3.358,7.5-7.5s-3.357-7.5-7.5-7.5h-21c-4.143,0-7.5,3.358-7.5,7.5
	S307.357,313.167,311.5,313.167z"/>
<path d="M304,326.333c0,4.142,3.357,7.5,7.5,7.5h117c4.143,0,7.5-3.358,7.5-7.5s-3.357-7.5-7.5-7.5h-117
	C307.357,318.833,304,322.191,304,326.333z"/>
<path d="M380.5,298.167h-21c-4.143,0-7.5,3.358-7.5,7.5s3.357,7.5,7.5,7.5h21c4.143,0,7.5-3.358,7.5-7.5
	S384.642,298.167,380.5,298.167z"/>
<path d="M428.5,313.167c4.143,0,7.5-3.358,7.5-7.5s-3.357-7.5-7.5-7.5h-21c-4.143,0-7.5,3.358-7.5,7.5s3.357,7.5,7.5,7.5H428.5z"/>
<g>
</g>
<g>
</g>
<g>
</g>
<g>
</g>
<g>
</g>
<g>
</g>
<g>
</g>
<g>
</g>
<g>
</g>
<g>
</g>
<g>
</g>
<g>
</g>
<g>
</g>
<g>
</g>
<g>
</g>
</svg>
