<?xml version="1.0" encoding="iso-8859-1"?>
<!-- Generator: Adobe Illustrator 19.0.0, SVG Export Plug-In . SVG Version: 6.00 Build 0)  -->
<svg version="1.1" id="Capa_1" xmlns="http://www.w3.org/2000/svg" xmlns:xlink="http://www.w3.org/1999/xlink" x="0px" y="0px"
	 viewBox="0 0 512 512" style="enable-background:new 0 0 512 512;" xml:space="preserve">
<path style="fill:#B1FFFF;" d="M38,191.75v188h306v-188H38z M206,359.75H58v-148h148V359.75z"/>
<g>
	<path style="fill:#304FFE;" d="M512,148.25l-130,71v-65.5H264v-65H65v65H0v264h382v-65.5l130,71V148.25z M81,104.75h167v49H81
		V104.75z M366,401.75H16v-232h350V401.75z M496,396.25l-114-62.26v-96.48l114-62.26V396.25z"/>
	<path style="fill:#304FFE;" d="M50,367.75h164v-164H50V367.75z M66,219.75h132v132H66V219.75z"/>
	<rect x="256" y="227.05" style="fill:#304FFE;" width="68" height="16"/>
	<rect x="256" y="277.75" style="fill:#304FFE;" width="68" height="16"/>
	<rect x="256" y="328.45" style="fill:#304FFE;" width="68" height="16"/>
</g>
<g>
</g>
<g>
</g>
<g>
</g>
<g>
</g>
<g>
</g>
<g>
</g>
<g>
</g>
<g>
</g>
<g>
</g>
<g>
</g>
<g>
</g>
<g>
</g>
<g>
</g>
<g>
</g>
<g>
</g>
</svg>
